<svg width="1606" height="349" viewBox="0 0 1606 349" fill="none" xmlns="http://www.w3.org/2000/svg">
<path d="M174.079 261.119C198.16 261.119 218.687 252.632 235.66 235.66C252.632 218.687 261.119 198.16 261.119 174.079C261.119 149.998 252.632 129.471 235.66 112.499C218.687 95.5259 198.16 87.0395 174.079 87.0395C149.998 87.0395 129.471 95.5259 112.499 112.499C95.5259 129.471 87.0395 149.998 87.0395 174.079C87.0395 198.16 95.5259 218.687 112.499 235.66C129.471 252.632 149.998 261.119 174.079 261.119ZM174.079 348.158C149.998 348.158 127.368 343.589 106.188 334.449C85.0086 325.31 66.5852 312.907 50.9181 297.24C35.251 281.573 22.8479 263.15 13.7087 241.97C4.56958 220.79 0 198.16 0 174.079C0 149.998 4.56958 127.368 13.7087 106.188C22.8479 85.0086 35.251 66.5852 50.9181 50.9181C66.5852 35.251 85.0086 22.8479 106.188 13.7087C127.368 4.56958 149.998 0 174.079 0C198.16 0 220.79 4.56958 241.97 13.7087C263.15 22.8479 281.573 35.251 297.24 50.9181C312.907 66.5852 325.31 85.0086 334.449 106.188C343.589 127.368 348.158 149.998 348.158 174.079C348.158 198.16 343.589 220.79 334.449 241.97C325.31 263.15 312.907 281.573 297.24 297.24C281.573 312.907 263.15 325.31 241.97 334.449C220.79 343.589 198.16 348.158 174.079 348.158ZM174.079 313.342C212.957 313.342 245.887 299.851 272.869 272.869C299.851 245.887 313.342 212.957 313.342 174.079C313.342 135.201 299.851 102.271 272.869 75.2892C245.887 48.3069 212.957 34.8158 174.079 34.8158C135.201 34.8158 102.271 48.3069 75.2892 75.2892C48.3069 102.271 34.8158 135.201 34.8158 174.079C34.8158 212.957 48.3069 245.887 75.2892 272.869C102.271 299.851 135.201 313.342 174.079 313.342Z" fill="#E57373"/>
<path d="M539.58 215.858L593.109 162.329L646.638 215.858L671.445 191.487L593.109 113.151L514.773 191.487L539.58 215.858ZM593.109 348.158C569.028 348.158 546.398 343.589 525.218 334.449C504.038 325.31 485.615 312.907 469.948 297.24C454.281 281.573 441.878 263.15 432.739 241.97C423.599 220.79 419.03 198.16 419.03 174.079C419.03 149.998 423.599 127.368 432.739 106.188C441.878 85.0086 454.281 66.5852 469.948 50.9181C485.615 35.251 504.038 22.8479 525.218 13.7087C546.398 4.56958 569.028 0 593.109 0C617.19 0 639.82 4.56958 661 13.7087C682.179 22.8479 700.603 35.251 716.27 50.9181C731.937 66.5852 744.34 85.0086 753.479 106.188C762.618 127.368 767.188 149.998 767.188 174.079C767.188 198.16 762.618 220.79 753.479 241.97C744.34 263.15 731.937 281.573 716.27 297.24C700.603 312.907 682.179 325.31 661 334.449C639.82 343.589 617.19 348.158 593.109 348.158ZM593.109 313.342C631.987 313.342 664.917 299.851 691.899 272.869C718.881 245.887 732.372 212.957 732.372 174.079C732.372 135.201 718.881 102.271 691.899 75.2892C664.917 48.3069 631.987 34.8158 593.109 34.8158C554.231 34.8158 521.301 48.3069 494.319 75.2892C467.337 102.271 453.846 135.201 453.846 174.079C453.846 212.957 467.337 245.887 494.319 272.869C521.301 299.851 554.231 313.342 593.109 313.342Z" fill="#F48FB1"/>
<path d="M1484.61 132.3L1431.08 185.829L1377.55 132.3L1352.74 156.671L1431.08 235.007L1509.41 156.671L1484.61 132.3ZM1431.08 4.95508e-05C1455.16 4.74455e-05 1477.79 4.56962 1498.97 13.7088C1520.15 22.8479 1538.57 35.2511 1554.24 50.9182C1569.91 66.5853 1582.31 85.0087 1591.45 106.188C1600.59 127.368 1605.16 149.998 1605.16 174.079C1605.16 198.16 1600.59 220.79 1591.45 241.97C1582.31 263.15 1569.91 281.573 1554.24 297.24C1538.57 312.907 1520.15 325.31 1498.97 334.449C1477.79 343.589 1455.16 348.158 1431.08 348.158C1407 348.158 1384.37 343.589 1363.19 334.449C1342.01 325.31 1323.59 312.907 1307.92 297.24C1292.25 281.573 1279.85 263.15 1270.71 241.97C1261.57 220.79 1257 198.16 1257 174.079C1257 149.998 1261.57 127.368 1270.71 106.188C1279.85 85.0087 1292.25 66.5853 1307.92 50.9182C1323.59 35.2511 1342.01 22.8479 1363.19 13.7088C1384.37 4.56963 1407 5.1656e-05 1431.08 4.95508e-05ZM1431.08 34.8159C1392.2 34.8159 1359.27 48.307 1332.29 75.2893C1305.31 102.272 1291.82 135.201 1291.82 174.079C1291.82 212.957 1305.31 245.887 1332.29 272.869C1359.27 299.851 1392.2 313.342 1431.08 313.342C1469.96 313.342 1502.89 299.851 1529.87 272.869C1556.85 245.887 1570.34 212.957 1570.34 174.079C1570.34 135.201 1556.85 102.272 1529.87 75.2892C1502.89 48.307 1469.96 34.8159 1431.08 34.8159Z" fill="#FFB74D"/>
<path d="M1012.08 226.303C1026.59 226.303 1038.92 221.226 1049.07 211.071C1059.23 200.916 1064.3 188.586 1064.3 174.079C1064.3 159.572 1059.23 147.242 1049.07 137.087C1038.92 126.933 1026.59 121.855 1012.08 121.855C997.572 121.855 985.242 126.933 975.087 137.087C964.933 147.242 959.855 159.572 959.855 174.079C959.855 188.586 964.933 200.916 975.087 211.071C985.242 221.226 997.572 226.303 1012.08 226.303ZM1012.08 348.158C987.998 348.158 965.368 343.589 944.188 334.449C923.009 325.31 904.585 312.907 888.918 297.24C873.251 281.573 860.848 263.15 851.709 241.97C842.57 220.79 838 198.16 838 174.079C838 149.998 842.57 127.368 851.709 106.188C860.848 85.0086 873.251 66.5852 888.918 50.9181C904.585 35.251 923.009 22.8479 944.188 13.7087C965.368 4.56958 987.998 0 1012.08 0C1036.16 0 1058.79 4.56958 1079.97 13.7087C1101.15 22.8479 1119.57 35.251 1135.24 50.9181C1150.91 66.5852 1163.31 85.0086 1172.45 106.188C1181.59 127.368 1186.16 149.998 1186.16 174.079C1186.16 198.16 1181.59 220.79 1172.45 241.97C1163.31 263.15 1150.91 281.573 1135.24 297.24C1119.57 312.907 1101.15 325.31 1079.97 334.449C1058.79 343.589 1036.16 348.158 1012.08 348.158ZM1012.08 313.342C1050.96 313.342 1083.89 299.851 1110.87 272.869C1137.85 245.887 1151.34 212.957 1151.34 174.079C1151.34 135.201 1137.85 102.271 1110.87 75.2892C1083.89 48.3069 1050.96 34.8158 1012.08 34.8158C973.201 34.8158 940.271 48.3069 913.289 75.2892C886.307 102.271 872.816 135.201 872.816 174.079C872.816 212.957 886.307 245.887 913.289 272.869C940.271 299.851 973.201 313.342 1012.08 313.342Z" fill="#9575CD"/>
</svg>
