<svg width="201" height="240" viewBox="0 0 201 240" fill="none" xmlns="http://www.w3.org/2000/svg">
<path d="M99.3947 239.988C86.1544 239.876 73.0708 237.129 60.915 231.908C48.7592 226.687 37.7772 219.099 28.6165 209.59C10.0177 190.184 -0.245804 164.333 0.00447198 137.524C0.254748 110.715 10.9991 85.0584 29.957 65.9991L92.156 4.00297C93.3681 2.70517 94.8431 1.67768 96.4836 0.988242C98.1242 0.298803 99.893 -0.0369185 101.674 0.00321788C103.457 0.0278736 105.217 0.406123 106.851 1.11582C108.485 1.82551 109.961 2.85238 111.191 4.1363L172.318 67.0657C190.934 86.4545 201.222 112.296 200.996 139.105C200.771 165.914 190.051 191.58 171.111 210.657C161.783 220.129 150.614 227.614 138.285 232.656C125.956 237.699 112.724 240.194 99.3947 239.988Z" fill="#F57EB0"/>
</svg>
